<svg width="697" height="342" viewBox="0 0 697 342" fill="none" xmlns="http://www.w3.org/2000/svg">
<path fill-rule="evenodd" clip-rule="evenodd" d="M5.31549 62.0207L62.0202 298.586L80.6264 295.927L85.9425 326.052L91.2585 330.482L107.207 328.71L112.523 322.508L108.979 293.269L125.813 288.839L141.761 319.85L150.621 322.508L166.569 311.876L153.279 274.663L167.455 262.259L175.43 234.793L237.45 277.321L240.108 284.409L300.357 256.943L303.901 268.461L343.772 269.347L403.134 264.031L410.222 256.943L438.575 264.031L466.041 278.207L501.481 272.891L530.72 256.943L554.642 233.907L557.3 260.487L570.59 290.611L606.917 301.244L633.497 296.814L649.445 284.409L656.533 255.171L642.357 214.415L684.886 193.15V164.798L651.217 126.699L615.777 110.751H589.197L567.046 129.357L551.984 100.119L519.202 74.4248L472.243 62.9067L425.285 74.4248L386.3 108.093L368.58 159.482L339.342 100.119L296.813 134.674L238.336 70.8808L234.792 159.482L179.86 103.663L146.191 62.9067L129.357 50.5025L97.4606 43.4144V10.632L91.2585 5.31598H76.1964L71.7663 16.8341L66.4502 43.4144L58.4761 46.9585L41.6419 14.1761L31.0098 16.8341L20.3777 22.1502L23.0357 37.2124L31.0098 54.0466L5.31549 62.0207ZM76.1955 159.482L81.5116 184.29L105.434 178.088L113.408 169.228L105.434 156.824L94.8018 153.28L76.1955 159.482ZM87.7137 219.73L92.1437 244.539H111.636L121.382 235.679L115.18 219.73L99.2318 217.958L87.7137 219.73Z" fill="black"/>
<path fill-rule="evenodd" clip-rule="evenodd" d="M65.0826 49.8797L57.8583 51.6267L41.6608 20.3685C40.3261 17.7927 37.1559 16.7866 34.5801 18.1214L25.8607 22.6396C23.2849 23.9744 22.2788 27.1445 23.6135 29.7203L37.5142 56.5461L9.4458 63.3334L63.0661 293.626C68.7308 293.394 74.3745 292.985 79.9971 292.4C81.7042 292.222 83.4093 292.028 85.1126 291.818L88.5129 321.697C88.8409 324.58 91.4436 326.651 94.3261 326.323L104.084 325.212C106.966 324.884 109.037 322.282 108.709 319.399L105.2 288.564C105.518 288.5 105.835 288.436 106.153 288.371C114.79 286.604 122.559 284.558 129.462 282.231L142.433 314.21C143.524 316.899 146.587 318.194 149.276 317.104L158.376 313.412C161.064 312.322 162.36 309.258 161.269 306.57L148.102 274.107C166.088 263.87 173.324 250.157 169.808 232.969C166.982 219.153 161.086 208.359 152.118 200.589C150.006 198.76 147.724 197.098 145.272 195.603C147.732 194.158 150.001 192.498 152.08 190.625C155.668 187.393 158.69 183.525 161.146 179.019C170.409 161.515 171.782 136.832 165.266 104.969C158.749 73.1064 140.084 54.2996 109.269 48.5488C106.482 48.0533 103.612 47.6852 100.658 47.4447C98.0919 47.2358 95.4629 47.1231 92.7702 47.1066L96.1784 14.7104C96.4819 11.8252 94.389 9.24026 91.5039 8.93674L81.7372 7.90928C78.852 7.60575 76.2671 9.6986 75.9636 12.5838L72.1676 48.6665C69.8441 49.0132 67.4824 49.4176 65.0826 49.8797ZM30.9549 11.1254C37.3945 7.78857 45.3199 10.3038 48.6567 16.7434L62.0116 42.5159L63.4107 42.1776L63.5926 42.1425C64.0489 42.0547 64.5041 41.9687 64.9582 41.8848L68.1274 11.7594C68.8862 4.54644 75.3486 -0.685678 82.5616 0.0731378L92.3282 1.1006C99.5412 1.85941 104.773 8.32181 104.015 15.5348L101.482 39.6065C104.609 39.8666 107.665 40.2605 110.648 40.7912L110.681 40.7971L110.714 40.8032C125.759 43.6109 138.552 49.3861 148.733 58.3635L148.731 58.3592L148.745 58.3736C149.851 59.3499 150.927 60.3641 151.972 61.4164C154.111 63.5721 156.099 65.8674 157.937 68.298L230.437 146.567V48.1606L298.216 126.015L343.083 85.1905L364.852 139.612C370.505 112.313 388.287 90.6428 416.543 74.8914C429.48 67.6059 444.475 61.9821 461.36 57.8786C465.898 56.7757 470.676 56.2282 475.542 56.4196C494.026 57.1467 510.441 61.3462 524.575 69.0253C531.421 63.8617 538.009 59.1175 544.283 54.8336C559.853 44.2022 574.084 35.9904 585.833 31.3839C591.651 29.1031 597.685 27.3718 603.428 27.0633C609.086 26.7593 616.687 27.7766 622.524 33.6973C628.362 39.6181 629.271 47.232 628.887 52.8856C628.497 58.6235 626.68 64.6328 624.317 70.4174C620.341 80.1513 613.838 91.5721 605.502 104.029C622.751 103.002 637.999 109.197 650.427 117.831C663.261 126.746 673.703 138.657 681.366 149.601C689 160.454 691.849 173.906 694.354 185.735L694.398 185.943L696.522 195.971L687.128 200.073L647.823 217.235C656.175 225.441 661.278 235.451 662.333 247.021C663.195 256.462 662.54 265.401 659.834 273.487C656.812 282.889 651.55 290.847 643.779 296.633C636.074 302.37 626.741 305.35 616.536 306.281C607.061 307.145 596.948 306.873 587.062 303.554C576.957 300.161 567.848 293.839 560.15 283.832L559.515 283.007L559.024 282.088C556.831 277.981 554.167 270.821 552.432 263.463C551.324 258.768 550.244 252.61 550.518 246.492C545.435 252.214 539.882 257.404 533.854 262.044C517.445 274.785 499.549 281.653 480.401 281.653C467.489 281.653 455.3 279.97 443.892 276.584C426.291 291.332 409.684 304.045 394.839 314.182C379.269 324.813 365.038 333.025 353.289 337.631C347.472 339.912 341.437 341.643 335.694 341.952C330.036 342.256 322.436 341.239 316.598 335.318C310.761 329.397 309.851 321.783 310.235 316.13C310.625 310.392 312.442 304.382 314.805 298.598C318.037 290.686 322.939 281.66 329.136 271.868L296.737 273.372L297.264 266.021L230.437 296.007V277.919L221.981 271.347L178.513 242.881C178.272 248.816 176.797 254.496 173.987 259.822C170.414 266.594 164.912 272.36 157.882 277.256L168.571 303.608C171.297 310.329 168.059 317.988 161.338 320.714L152.237 324.405C145.516 327.131 137.858 323.893 135.132 317.172L124.886 291.911C121.368 292.927 117.685 293.877 113.836 294.765L116.538 318.508C117.358 325.714 112.181 332.221 104.975 333.041L95.217 334.151C88.0107 334.972 81.5041 329.794 80.684 322.588L78.1703 300.499C73.2583 300.963 68.3311 301.297 63.3889 301.499L56.8713 301.766L0 57.511L25.895 51.2493L16.6176 33.3455C13.2807 26.9059 15.796 18.9806 22.2355 15.6437L30.9549 11.1254ZM567.259 222.802C571.176 227.328 575.61 231.074 580.561 234.041C583.253 235.654 586.099 237.038 589.097 238.19C592.679 239.591 595.904 241.172 598.711 242.811C601.163 244.242 603.295 245.718 605.067 247.157C605.253 247.308 605.435 247.458 605.612 247.608C608.985 250.451 610.916 253.113 611.084 254.949C611.182 256.028 610.667 257.096 609.539 258.151C608.398 259.072 607.288 259.581 606.208 259.68C603.913 259.889 601.087 259.19 598.605 256.484C597.585 255.372 596.622 253.922 595.779 252.058L585.071 248.663L585.01 248.643L575.883 245.749L575.404 245.597L563.896 241.949C562.771 245.524 562.865 250.224 563.592 255.044C564.874 263.554 568.126 272.437 570.117 276.164C582.61 292.404 598.39 295.309 615.394 293.758C632.397 292.206 643.228 284.142 647.885 269.566C649.92 263.529 650.561 256.395 649.81 248.163C649.01 239.392 645.045 231.725 637.915 225.164C636.992 224.335 636.048 223.546 635.083 222.798C630.009 218.86 624.364 216.032 618.147 214.313C618.011 214.278 617.874 214.238 617.737 214.194C611.934 212.346 604.419 202.724 603.89 196.924C603.422 191.796 605.685 189.004 610.678 188.549C611.757 188.45 612.923 188.548 614.174 188.842C618.99 189.651 624.198 193.849 627.664 198.594C629.41 200.983 630.714 203.511 631.304 205.814C631.458 206.418 631.564 207.007 631.616 207.573C631.726 208.787 631.684 209.812 631.488 210.646L636.389 208.506L640.352 206.776L643.99 205.187L682.096 188.549C679.467 176.134 677.013 165.263 671.073 156.824C656.835 136.488 633.262 114.092 604.653 116.702C601.438 116.996 598.382 117.548 595.479 118.323C589.913 125.936 583.716 133.954 576.955 142.281C579.857 153.978 581.293 166.279 581.293 179.144C581.293 192.36 576.334 206.568 568.066 221.342C567.799 221.831 567.53 222.318 567.259 222.802ZM176.138 156.721C175.274 162.95 173.867 168.777 171.889 174.183L166.526 198.4L183.171 200.914C183.071 201.473 182.963 202.033 182.855 202.592C182.472 204.577 182.09 206.557 182.08 208.51C182.727 208.319 184.441 208.264 186.319 208.204H186.319C188.549 208.132 191.009 208.053 192.188 207.732C193.364 207.411 195.409 207.289 197.261 207.178C198.829 207.084 200.26 206.999 200.908 206.808C200.688 208.251 200.482 209.742 200.234 211.544L200.234 211.545L200.234 211.546C199.771 214.906 199.159 219.348 198.022 226.576C197.633 230.423 197.725 233.747 198.298 236.547C199.681 243.28 203.332 246.985 209.25 247.664C210.651 247.825 212.151 247.813 213.75 247.629C219.002 247.041 224.564 245.577 230.437 243.238V211.307C223.894 215.252 216.11 218.89 213.75 218.619C211.128 218.318 211.799 211.287 212.261 206.462C212.279 206.271 212.297 206.082 212.314 205.898L212.333 205.696L212.352 205.501C218.473 203.942 221.554 203.217 221.594 203.327C221.55 201.19 221.999 198.677 222.447 196.171L222.447 196.171C222.895 193.67 223.341 191.176 223.294 189.069L210.137 193.177L211.787 184.294C209.599 184.569 205.619 185.112 199.846 185.922L200.908 193.854L194.054 195.041L200.64 161.265L176.138 156.721ZM86.7156 178.986L86.7166 178.986C96.7756 176.414 102.986 174.739 106.622 172.527C108.183 171.577 108.567 170.918 108.687 170.648C108.796 170.402 109.093 169.572 108.637 167.459C107.019 160.293 101.133 155.601 94.451 156.968C90.3666 157.803 85.9255 159.376 81.1153 161.788L84.3347 179.596C85.1228 179.393 85.8962 179.196 86.6536 179.002L86.6558 179.001L86.6899 178.993L86.7156 178.986ZM88.6676 186.62C87.7108 186.865 86.7347 187.114 85.7402 187.37C83.2998 187.998 80.7486 188.666 78.099 189.394L72.3502 157.595C79.5831 153.35 86.4238 150.567 92.8722 149.248C105.01 146.766 114.086 155.746 116.331 165.76C119.171 178.82 107.743 181.742 88.6685 186.62L88.6676 186.62ZM112.124 222.106C109.663 220.821 105.269 220.126 97.8412 221.645C96.0847 222.005 94.3685 222.447 92.6916 222.973L96.1121 241.451C101.04 241.889 105.281 241.68 108.901 240.94C113.474 240.004 115.388 238.478 116.208 237.344C116.967 236.292 117.715 234.293 117.044 230.224C116.096 225.31 114.186 223.183 112.124 222.106ZM124.801 228.836C122.276 215.521 112.763 210.551 96.2624 213.926C91.9003 214.818 87.7299 216.165 83.7514 217.966L89.4081 248.523C97.3866 249.855 104.41 249.9 110.479 248.659C121.859 246.332 126.633 239.724 124.801 228.836ZM408.458 268.188L365.186 270.196C364.259 271.483 363.352 272.755 362.467 274.013C352.111 288.728 345.12 300.785 341.551 309.523C341.271 310.209 341.02 310.854 340.796 311.461C341.405 311.245 342.054 311.004 342.744 310.734C351.531 307.288 363.687 300.469 378.547 290.322C387.777 284.02 397.82 276.594 408.458 268.188ZM425.027 254.698C419.273 251.259 413.83 247.202 408.699 242.528C407.194 241.163 405.741 239.763 404.338 238.328L375.631 166.561C375.524 164.175 375.471 161.752 375.471 159.292C375.471 127.879 391.21 103.402 422.689 85.8617C434.435 79.2444 448.315 73.9899 464.33 70.0979C467.834 69.2463 471.444 68.8431 475.048 68.9849C509.956 70.3581 535.545 85.1525 551.812 113.368C553.432 116.141 554.935 118.968 556.322 121.849C537.158 145.659 512.762 172.601 484.903 200.068C464.273 220.407 443.959 238.852 425.027 254.698ZM455.61 266.591C463.455 268.249 471.719 269.078 480.401 269.078C496.335 269.078 511.589 263.417 526.163 252.096C538.599 242.528 548.898 230.25 557.059 215.261C564.831 201.388 568.718 189.349 568.718 179.144C568.718 170.662 568.045 162.493 566.701 154.638C548.985 175.546 528.147 198.004 505.186 220.641C488.367 237.224 471.66 252.669 455.61 266.591ZM564.884 110.967C569.143 105.424 573.075 100.09 576.655 95.0027C587.012 80.2872 594.002 68.2299 597.572 59.4917C597.852 58.8064 598.102 58.1609 598.327 57.5543C597.717 57.7699 597.068 58.0114 596.379 58.2816C587.591 61.727 575.436 68.546 560.575 78.6931C556.616 81.396 552.508 84.3057 548.268 87.4108C553.635 93.1612 558.45 99.7099 562.689 107.058C563.444 108.351 564.176 109.654 564.884 110.967ZM414.789 263.125L414.387 263.45L414.066 262.648C414.12 262.684 414.174 262.72 414.228 262.755L414.35 262.836C414.435 262.892 414.52 262.948 414.605 263.004C414.667 263.045 414.728 263.085 414.789 263.125ZM243.012 81.7561L297.171 143.967L338.139 106.69L397.899 256.089L310.292 260.154L315.057 193.736L300.282 223.286L283.952 193.736L287.323 256.699L243.012 276.582V81.7561ZM605.452 55.9085C605.452 55.909 605.434 55.9083 605.4 55.9047C605.436 55.9061 605.453 55.9079 605.452 55.9085ZM600.076 50.5053C600.073 50.4713 600.073 50.4533 600.073 50.4527C600.074 50.4521 600.075 50.4691 600.076 50.5053ZM333.67 313.107C333.671 313.106 333.689 313.107 333.722 313.11C333.686 313.109 333.669 313.107 333.67 313.107ZM339.046 318.51C339.049 318.544 339.05 318.562 339.049 318.563C339.048 318.563 339.047 318.546 339.046 318.51ZM181.233 140.318C181.831 138.316 184.135 137.177 188.143 136.903C191.683 136.695 192.532 136.949 196.291 138.074L196.693 138.194C200.147 139.226 202.456 141.17 203.62 144.027C204.554 146.378 204.526 150.381 203.763 152.934C203.149 154.986 200.956 156.212 197.183 156.612C193.611 157.071 192.949 156.937 188.994 155.755C185.54 154.723 183.136 152.642 181.781 149.51C180.592 146.919 180.485 142.821 181.233 140.318Z" fill="#F9FE18"/>
</svg>
